<?xml version="1.0" encoding="UTF-8" standalone="no"?>
<!-- Created with Inkscape (http://www.inkscape.org/) -->

<svg
   width="139.25185mm"
   height="139.25186mm"
   viewBox="0 0 139.25185 139.25186"
   version="1.1"
   id="svg5"
   xmlns:inkscape="http://www.inkscape.org/namespaces/inkscape"
   xmlns:sodipodi="http://sodipodi.sourceforge.net/DTD/sodipodi-0.dtd"
   xmlns="http://www.w3.org/2000/svg"
   xmlns:svg="http://www.w3.org/2000/svg">
  <sodipodi:namedview
     id="namedview7"
     pagecolor="#ffffff"
     bordercolor="#000000"
     borderopacity="0.25"
     inkscape:showpageshadow="2"
     inkscape:pageopacity="0.0"
     inkscape:pagecheckerboard="0"
     inkscape:deskcolor="#d1d1d1"
     inkscape:document-units="mm"
     showgrid="false" />
  <defs
     id="defs2" />
  <g
     inkscape:label="Camada 1"
     inkscape:groupmode="layer"
     id="layer1"
     transform="translate(-35.374078,-78.874075)">
    <rect
       style="fill:#333333;stroke:#000000;stroke-width:10;stroke-linejoin:round;stroke-dasharray:40, 20, 10, 20;stroke-dashoffset:0;stroke-opacity:1;paint-order:markers fill stroke"
       id="rect544-8"
       width="129.25185"
       height="129.25185"
       x="40.374077"
       y="83.874077" />
    <rect
       style="fill:#333333;stroke:#b2b2b2;stroke-width:10;stroke-linejoin:round;stroke-dasharray:20, 10, 5, 10;stroke-dashoffset:0;stroke-opacity:1;paint-order:markers fill stroke"
       id="rect544"
       width="129.25185"
       height="129.25185"
       x="40.374077"
       y="83.874077" />
    <path
       d="m 75.768032,182.98077 q -16.066474,0 -16.066474,-16.06647 v -36.92066 q 0,-16.06648 16.066474,-16.06648 h 18.92068 q 1.84143,0 1.84143,1.84143 v 5.57033 q 0,1.79539 -1.84143,1.79539 h -18.92068 q -6.859326,0 -6.859326,6.85933 v 36.92066 q 0,6.85932 6.859326,6.85932 h 18.92068 q 1.84143,0 1.84143,1.84143 v 5.6624 q 0,1.70332 -1.84143,1.70332 z"
       style="font-size:94.2812px;line-height:0.1;font-family:'Hartland Bold';-inkscape-font-specification:'Hartland Bold, ';fill:#f2f2f2;stroke:#c4c4c4;stroke-width:5;stroke-dasharray:none;stroke-opacity:1"
       id="path1377" />
    <path
       d="m 108.91231,130.45399 q 0,-16.52683 16.52683,-16.52683 h 8.28643 q 16.57287,0 16.57287,16.57287 v 35.99995 q 0,16.57286 -16.57287,16.57286 h -8.28643 q -16.52683,0 -16.52683,-16.52683 z m 32.22502,0.046 q -0.046,-7.36572 -7.41176,-7.36572 h -8.28643 q -7.31968,0 -7.31968,7.31968 v 36.09202 q 0,7.31969 7.31968,7.31969 h 8.28643 q 7.36572,0 7.41176,-7.36572 z"
       style="font-size:94.2812px;line-height:0.1;font-family:'Hartland Bold';-inkscape-font-specification:'Hartland Bold, ';fill:#f2f2f2;stroke:#c4c4c4;stroke-width:5;stroke-dasharray:none;stroke-opacity:1"
       id="path1379"
       inkscape:export-filename="favicon.svg"
       inkscape:export-xdpi="8.7553606"
       inkscape:export-ydpi="8.7553606" />
  </g>
</svg>
